<?xml version="1.0" encoding="iso-8859-1"?>
<!-- Generator: Adobe Illustrator 19.0.0, SVG Export Plug-In . SVG Version: 6.00 Build 0)  -->
<svg version="1.1" id="Layer_1" xmlns="http://www.w3.org/2000/svg" xmlns:xlink="http://www.w3.org/1999/xlink" x="0px" y="0px"
	 viewBox="0 0 512 512" style="enable-background:new 0 0 512 512;" xml:space="preserve">
<g>
	<g>
		<path d="M501.801,191.804H156.027V120.37c0-4.126-2.486-7.844-6.296-9.423c-3.811-1.576-8.199-0.706-11.115,2.211L2.987,248.787
			c-3.983,3.984-3.983,10.442,0,14.425l135.63,135.629c1.951,1.951,4.559,2.987,7.214,2.987c1.314,0,2.64-0.254,3.9-0.776
			c3.81-1.579,6.296-5.297,6.296-9.423v-71.434h345.773c5.632,0,10.199-4.567,10.199-10.199V202.003
			C512,196.371,507.433,191.804,501.801,191.804z M491.601,299.797H145.829c-5.632,0-10.199,4.567-10.199,10.199v57.01L24.624,256
			l111.005-111.006v57.01c0,5.632,4.567,10.199,10.199,10.199h345.773V299.797z"/>
	</g>
</g>
<g>
	<g>
		<path d="M467.439,267.219H362.852c-5.632,0-10.199,4.567-10.199,10.199s4.567,10.199,10.199,10.199h104.588
			c5.632,0,10.199-4.567,10.199-10.199S473.071,267.219,467.439,267.219z"/>
	</g>
</g>
<g>
	<g>
		<path d="M329.75,267.219h-6.436c-5.632,0-10.199,4.567-10.199,10.199s4.567,10.199,10.199,10.199h6.436
			c5.632,0,10.199-4.567,10.199-10.199S335.382,267.219,329.75,267.219z"/>
	</g>
</g>
<g>
</g>
<g>
</g>
<g>
</g>
<g>
</g>
<g>
</g>
<g>
</g>
<g>
</g>
<g>
</g>
<g>
</g>
<g>
</g>
<g>
</g>
<g>
</g>
<g>
</g>
<g>
</g>
<g>
</g>
</svg>
